<svg xmlns="http://www.w3.org/2000/svg" width="6357.951" height="4965.147" viewBox="0 0 6357.951 4965.147"><g transform="translate(-10371.844 7646)"><ellipse cx="3143" cy="550" rx="3143" ry="550" transform="matrix(0.996, -0.087, 0.087, 0.996, 10371.844, -3776.667)" fill="#eafcff"/><g transform="translate(5731 -1090)"><g transform="translate(5492 -6556)" fill="#ff8989"><path d="M 2074.500244140625 4148.5 C 2039.007446289062 4148.5 2003.0986328125 4147.59228515625 1967.77197265625 4145.80126953125 C 1932.714721679688 4144.0244140625 1897.277465820312 4141.32958984375 1862.4453125 4137.7919921875 C 1827.866455078125 4134.28076171875 1792.944702148438 4129.8427734375 1758.649780273438 4124.6025390625 C 1724.591918945312 4119.39892578125 1690.229736328125 4113.26220703125 1656.516357421875 4106.36376953125 C 1623.0224609375 4099.509765625 1589.263061523438 4091.71826171875 1556.174682617188 4083.205078125 C 1523.2880859375 4074.743896484375 1490.17529296875 4065.340576171875 1457.755859375 4055.25732421875 C 1425.519165039062 4045.23046875 1393.096435546875 4034.260009765625 1361.38916015625 4022.650634765625 C 1329.845336914062 4011.1005859375 1298.157470703125 3998.606689453125 1267.205810546875 3985.514892578125 C 1236.398071289062 3972.484375 1205.488647460938 3958.510498046875 1175.335815429688 3943.981689453125 C 1145.307006835938 3929.51220703125 1115.2197265625 3914.102294921875 1085.9091796875 3898.179931640625 C 1056.703002929688 3882.31396484375 1027.4814453125 3865.51220703125 999.0558471679688 3848.240478515625 C 970.7163696289062 3831.0205078125 942.4047241210938 3812.87060546875 914.9075317382812 3794.2939453125 C 887.4769287109375 3775.76220703125 860.1192016601562 3756.30712890625 833.5930786132812 3736.469970703125 C 807.1158447265625 3716.6689453125 780.7553100585938 3695.953369140625 755.2435913085938 3674.8994140625 C 729.7636108398438 3653.87109375 704.4441528320312 3631.939453125 679.98974609375 3609.712890625 C 655.5497436523438 3587.49951171875 631.3158569335938 3564.39453125 607.9608154296875 3541.03955078125 C 584.6058349609375 3517.684326171875 561.5008544921875 3493.450439453125 539.2875366210938 3469.010498046875 C 517.0608520507812 3444.55615234375 495.1291809082031 3419.236572265625 474.100830078125 3393.756591796875 C 453.0469360351562 3368.2451171875 432.3313903808594 3341.884521484375 412.5302734375 3315.4072265625 C 392.6930541992188 3288.881103515625 373.2380676269531 3261.5234375 354.7063903808594 3234.0927734375 C 336.1297302246094 3206.595458984375 317.979736328125 3178.283935546875 300.7597351074219 3149.9443359375 C 283.4880676269531 3121.518798828125 266.6864013671875 3092.297119140625 250.8202819824219 3063.091064453125 C 234.8980560302734 3033.780517578125 219.4880676269531 3003.693359375 205.0186157226562 2973.66455078125 C 190.4897308349609 2943.51171875 176.5158386230469 2912.602294921875 163.4852905273438 2881.79443359375 C 150.3936157226562 2850.8427734375 137.8997344970703 2819.155029296875 126.3497314453125 2787.611083984375 C 114.7402877807617 2755.90380859375 103.7697296142578 2723.481201171875 93.74306488037109 2691.244384765625 C 83.65972900390625 2658.824951171875 74.25639343261719 2625.712158203125 65.7952880859375 2592.825439453125 C 57.28195190429688 2559.7373046875 49.49028396606445 2525.977783203125 42.63639450073242 2492.48388671875 C 35.73806381225586 2458.7705078125 29.60139465332031 2424.408447265625 24.39750671386719 2390.3505859375 C 19.15750694274902 2356.0556640625 14.71972846984863 2321.1337890625 11.20806217193604 2286.554931640625 C 7.670839786529541 2251.72265625 4.975839614868164 2216.28564453125 3.199173212051392 2181.228271484375 C 1.408062100410461 2145.901611328125 0.5002843141555786 2109.99267578125 0.5002843141555786 2074.5 C 0.5002843141555786 2039.007202148438 1.408062100410461 2003.098388671875 3.199173212051392 1967.771606445312 C 4.975839614868164 1932.714477539062 7.670839786529541 1897.27783203125 11.20806217193604 1862.444946289062 C 14.71972846984863 1827.866088867188 19.15750694274902 1792.944458007812 24.39750671386719 1758.6494140625 C 29.60139465332031 1724.592163085938 35.73806381225586 1690.2294921875 42.63639450073242 1656.51611328125 C 49.49028396606445 1623.022827148438 57.28195190429688 1589.262817382812 65.7952880859375 1556.175048828125 C 74.25639343261719 1523.287719726562 83.65972900390625 1490.175048828125 93.74306488037109 1457.755615234375 C 103.7697296142578 1425.518920898438 114.7402877807617 1393.0966796875 126.3497314453125 1361.389404296875 C 137.8997344970703 1329.845581054688 150.3936157226562 1298.157836914062 163.4852905273438 1267.2060546875 C 176.5158386230469 1236.397827148438 190.4897308349609 1205.48828125 205.0186157226562 1175.335571289062 C 219.4880676269531 1145.307250976562 234.8980560302734 1115.219482421875 250.8202819824219 1085.908935546875 C 266.6864013671875 1056.702758789062 283.4880676269531 1027.481689453125 300.7597351074219 999.0560913085938 C 317.979736328125 970.7161254882812 336.1297302246094 942.4044189453125 354.7063903808594 914.9072265625 C 373.2380676269531 887.4772338867188 392.6930541992188 860.118896484375 412.5302734375 833.5933227539062 C 432.3313903808594 807.1160888671875 453.0469360351562 780.7555541992188 474.100830078125 755.243896484375 C 495.1291809082031 729.7633056640625 517.0608520507812 704.4444580078125 539.2875366210938 679.9894409179688 C 561.5008544921875 655.5499877929688 584.6058349609375 631.3155517578125 607.9608154296875 607.9605712890625 C 631.3158569335938 584.6055297851562 655.5497436523438 561.5005493164062 679.98974609375 539.2877807617188 C 704.4441528320312 517.0610961914062 729.7636108398438 495.1288757324219 755.2435913085938 474.1005554199219 C 780.7553100585938 453.0466613769531 807.1158447265625 432.3311157226562 833.5930786132812 412.5299987792969 C 860.1192016601562 392.6927795410156 887.4769287109375 373.23779296875 914.9075317382812 354.7066650390625 C 942.4047241210938 336.1300048828125 970.7163696289062 317.9794311523438 999.0558471679688 300.7594299316406 C 1027.4814453125 283.48779296875 1056.703002929688 266.6860961914062 1085.9091796875 250.820556640625 C 1115.2197265625 234.8977813720703 1145.307006835938 219.4877777099609 1175.335815429688 205.0188903808594 C 1205.488647460938 190.4894409179688 1236.398071289062 176.5155487060547 1267.205810546875 163.4850006103516 C 1298.157470703125 150.3933258056641 1329.845336914062 137.8994445800781 1361.38916015625 126.3494415283203 C 1393.096435546875 114.7399978637695 1425.519165039062 103.7694473266602 1457.755859375 93.74277496337891 C 1490.17529296875 83.65944671630859 1523.2880859375 74.25666809082031 1556.174682617188 65.79499816894531 C 1589.263061523438 57.28166580200195 1623.0224609375 49.4900016784668 1656.516357421875 42.63611221313477 C 1690.229736328125 35.73777770996094 1724.591918945312 29.60111045837402 1758.649780273438 24.3972225189209 C 1792.944702148438 19.15722274780273 1827.866455078125 14.71944427490234 1862.4453125 11.20777797698975 C 1897.277465820312 7.670555591583252 1932.714721679688 4.975555419921875 1967.77197265625 3.198888778686523 C 2003.0986328125 1.407777786254883 2039.007446289062 0.5 2074.500244140625 0.5 C 2102.383544921875 0.5 2130.765380859375 1.379444479942322 2158.857421875 3.11388897895813 C 2186.8681640625 4.842777729034424 2215.350830078125 7.468888759613037 2243.5146484375 10.91888904571533 C 2271.6103515625 14.36055564880371 2300.150390625 18.71555519104004 2328.342529296875 23.86277770996094 C 2356.479736328125 29.00055503845215 2385.0341796875 35.06611251831055 2413.2119140625 41.8922233581543 C 2441.34912109375 48.70888900756836 2469.874267578125 56.46777725219727 2497.99462890625 64.95388793945312 C 2526.088623046875 73.43222045898438 2554.54150390625 82.86666870117188 2582.561279296875 92.99500274658203 C 2610.56982421875 103.1183319091797 2638.906494140625 114.2099990844727 2666.78369140625 125.9611129760742 C 2694.6630859375 137.7133331298828 2722.84033203125 150.4444427490234 2750.531982421875 163.8005523681641 C 2778.23974609375 177.1644439697266 2806.213623046875 191.5166625976562 2833.677001953125 206.4588928222656 C 2861.170166015625 221.4177703857422 2888.898681640625 237.3738861083984 2916.0908203125 253.8838958740234 C 2943.326416015625 270.4205627441406 2970.765380859375 287.9622192382812 2997.6435546875 306.0216674804688 C 3024.5791015625 324.118896484375 3051.68408203125 343.2283325195312 3078.20703125 362.8188781738281 C 3104.798095703125 382.4605407714844 3131.527587890625 403.1194458007812 3157.6513671875 424.2227783203125 C 3183.85595703125 445.39111328125 3210.164794921875 467.5822143554688 3235.8486328125 490.1799926757812 C 3261.6220703125 512.8577880859375 3287.468017578125 536.5628051757812 3312.668701171875 560.63720703125 C 3337.968505859375 584.806640625 3363.30810546875 610.0083618164062 3387.982421875 635.54052734375 C 3407.1962890625 655.4222412109375 3426.476318359375 675.9905395507812 3445.286376953125 696.6738891601562 C 3464.165283203125 717.4328002929688 3483.09423828125 738.8816528320312 3501.54638671875 760.425537109375 C 3520.0703125 782.0533447265625 3538.62744140625 804.375 3556.701904296875 826.7711181640625 C 3574.850830078125 849.260009765625 3593.016357421875 872.4461059570312 3610.693115234375 895.6860961914062 C 3628.447021484375 919.0272216796875 3646.2001953125 943.0694580078125 3663.459716796875 967.1444702148438 C 3680.798095703125 991.3300170898438 3698.119140625 1016.219970703125 3714.94189453125 1041.122802734375 C 3731.8447265625 1066.144409179688 3748.713134765625 1091.873291015625 3765.07861328125 1117.594970703125 C 3781.52587890625 1143.444458007812 3797.92138671875 1170.00439453125 3813.810302734375 1196.53662109375 C 3829.781494140625 1223.2060546875 3845.68359375 1250.58837890625 3861.076416015625 1277.922729492188 C 3876.551513671875 1305.403930664062 3891.94091796875 1333.599975585938 3906.81689453125 1361.728881835938 C 3921.775390625 1390.012817382812 3936.63134765625 1419.015014648438 3950.971923828125 1447.929443359375 C 3965.3935546875 1477.00830078125 3979.6953125 1506.807739257812 3993.480224609375 1536.5 C 4007.34521484375 1566.365600585938 4021.072998046875 1596.953857421875 4034.282470703125 1627.41552734375 C 4047.57080078125 1658.058837890625 4060.7041015625 1689.427734375 4073.318603515625 1720.651123046875 C 4086.009765625 1752.064453125 4098.52880859375 1784.20556640625 4110.52783203125 1816.181640625 C 4122.6015625 1848.356689453125 4134.48583984375 1881.26171875 4145.85009765625 1913.982788085938 C 4157.28662109375 1946.9111328125 4168.51513671875 1980.571655273438 4179.22509765625 2014.029418945312 C 4190.00439453125 2047.702270507812 4200.5576171875 2082.110107421875 4210.59326171875 2116.296142578125 C 4220.6943359375 2150.70556640625 4230.552734375 2185.8515625 4239.8935546875 2220.7587890625 C 4249.296875 2255.89599609375 4258.43896484375 2291.772705078125 4267.06640625 2327.392333984375 C 4275.75146484375 2363.24951171875 4284.15771484375 2399.84765625 4292.05126953125 2436.171142578125 C 4299.998046875 2472.739990234375 4307.64794921875 2510.0517578125 4314.7880859375 2547.071044921875 C 4321.9765625 2584.3427734375 4328.849609375 2622.360107421875 4335.21630859375 2660.066650390625 C 4341.62646484375 2698.033447265625 4347.703125 2736.747802734375 4353.2763671875 2775.1337890625 C 4358.88818359375 2813.78662109375 4364.14697265625 2853.189453125 4368.90771484375 2892.247314453125 C 4373.70068359375 2931.578369140625 4378.12255859375 2971.66064453125 4382.0498046875 3011.381591796875 C 4386.00439453125 3051.38232421875 4389.56787109375 3092.13671875 4392.642578125 3132.5126953125 C 4395.73876953125 3173.174560546875 4398.4248046875 3214.59228515625 4400.62646484375 3255.615478515625 C 4402.84375 3296.929931640625 4404.63134765625 3339.002685546875 4405.9404296875 3380.6650390625 C 4407.2587890625 3422.623779296875 4408.12841796875 3465.34326171875 4408.52490234375 3507.63623046875 C 4408.92431640625 3550.231201171875 4408.85546875 3593.58837890625 4408.31982421875 3636.50390625 C 4407.78125 3679.610595703125 4406.75732421875 3723.476806640625 4405.2763671875 3766.892333984375 C 4402.61474609375 3767.744873046875 4384.1962890625 3773.6201171875 4352.43310546875 3783.187255859375 C 4320.81591796875 3792.71044921875 4269.13427734375 3807.94287109375 4202.47509765625 3826.428955078125 C 4127.55322265625 3847.206787109375 4049.369140625 3867.775634765625 3970.096435546875 3887.56396484375 C 3871.00537109375 3912.298828125 3769.922607421875 3935.877685546875 3669.656494140625 3957.64453125 C 3414.435302734375 4013.051025390625 3162.899658203125 4057.19775390625 2922.035888671875 4088.8583984375 C 2852.411376953125 4098.0107421875 2782.765380859375 4106.22509765625 2715.03076171875 4113.2744140625 C 2643.73193359375 4120.69482421875 2572.588623046875 4127.0283203125 2503.576416015625 4132.09912109375 C 2431.19873046875 4137.41650390625 2359.161865234375 4141.49267578125 2289.468017578125 4144.21337890625 C 2216.6064453125 4147.0576171875 2144.28076171875 4148.5 2074.500244140625 4148.5 Z" stroke="none"/><path d="M 2074.499755859375 1 C 2039.015380859375 1 2003.115234375 1.90771484375 1967.796875 3.69775390625 C 1932.748046875 5.474609375 1897.319091796875 8.1689453125 1862.495361328125 11.70556640625 C 1827.9248046875 15.21630859375 1793.011474609375 19.65283203125 1758.724609375 24.8916015625 C 1724.67529296875 30.09375 1690.3212890625 36.22900390625 1656.616455078125 43.1259765625 C 1623.130859375 49.978515625 1589.379150390625 57.768310546875 1556.299072265625 66.279541015625 C 1523.420166015625 74.73828125 1490.315185546875 84.139404296875 1457.904052734375 94.219970703125 C 1425.6748046875 104.244384765625 1393.26025390625 115.212158203125 1361.560791015625 126.81884765625 C 1330.024658203125 138.3662109375 1298.3447265625 150.857177734375 1267.400390625 163.945556640625 C 1236.599609375 176.97265625 1205.697998046875 190.943359375 1175.552490234375 205.468994140625 C 1145.53076171875 219.93505859375 1115.450927734375 235.341064453125 1086.1474609375 251.259521484375 C 1056.94873046875 267.12109375 1027.734130859375 283.91943359375 999.315185546875 301.186767578125 C 970.982421875 318.40234375 942.677490234375 336.54833984375 915.18701171875 355.12060546875 C 887.76318359375 373.647705078125 860.411865234375 393.09765625 833.892578125 412.9306640625 C 807.42138671875 432.7265625 781.067626953125 453.437255859375 755.56201171875 474.486083984375 C 730.08740234375 495.509521484375 704.774169921875 517.43603515625 680.3251953125 539.6572265625 C 655.891357421875 561.864990234375 631.66357421875 584.96435546875 608.314208984375 608.31396484375 C 584.964111328125 631.663330078125 561.86474609375 655.8916015625 539.657470703125 680.325439453125 C 517.435791015625 704.7744140625 495.50927734375 730.087890625 474.48583984375 755.561767578125 C 453.43701171875 781.067138671875 432.726318359375 807.421630859375 412.93017578125 833.892333984375 C 393.097412109375 860.41162109375 373.6474609375 887.763427734375 355.1201171875 915.187255859375 C 336.5478515625 942.67724609375 318.40234375 970.982177734375 301.18701171875 999.315673828125 C 283.9189453125 1027.73388671875 267.12158203125 1056.9482421875 251.25927734375 1086.147216796875 C 235.3408203125 1115.451171875 219.9345703125 1145.531005859375 205.46875 1175.55224609375 C 190.94287109375 1205.69775390625 176.97265625 1236.60009765625 163.9453125 1267.400634765625 C 150.85693359375 1298.344482421875 138.36572265625 1330.02490234375 126.8193359375 1361.56103515625 C 115.2119140625 1393.260498046875 104.244140625 1425.675048828125 94.22021484375 1457.90380859375 C 84.13916015625 1490.315673828125 74.73828125 1523.420654296875 66.279296875 1556.299560546875 C 57.76806640625 1589.37939453125 49.97802734375 1623.130615234375 43.1259765625 1656.6162109375 C 36.228515625 1690.321044921875 30.09375 1724.675537109375 24.8916015625 1758.72509765625 C 19.65234375 1793.01171875 15.2158203125 1827.925048828125 11.705078125 1862.49560546875 C 8.16845703125 1897.3193359375 5.47412109375 1932.748291015625 3.697265625 1967.797119140625 C 1.90771484375 2003.115478515625 0.99951171875 2039.015625 0.99951171875 2074.5 C 0.99951171875 2109.984375 1.90771484375 2145.88427734375 3.697265625 2181.20263671875 C 5.47412109375 2216.251708984375 8.16845703125 2251.6806640625 11.705078125 2286.50439453125 C 15.2158203125 2321.074951171875 19.65234375 2355.98828125 24.8916015625 2390.27490234375 C 30.09375 2424.324462890625 36.228515625 2458.6787109375 43.1259765625 2492.3837890625 C 49.97802734375 2525.869384765625 57.76806640625 2559.62060546875 66.279296875 2592.70068359375 C 74.73828125 2625.57958984375 84.13916015625 2658.6845703125 94.22021484375 2691.09619140625 C 104.244140625 2723.324951171875 115.2119140625 2755.739501953125 126.8193359375 2787.43896484375 C 138.36572265625 2818.97509765625 150.85693359375 2850.655517578125 163.9453125 2881.599609375 C 176.97265625 2912.39990234375 190.94287109375 2943.30224609375 205.46875 2973.44775390625 C 219.9345703125 3003.46875 235.3408203125 3033.548828125 251.25927734375 3062.852783203125 C 267.12158203125 3092.0517578125 283.9189453125 3121.26611328125 301.18701171875 3149.6845703125 C 318.40234375 3178.017822265625 336.5478515625 3206.32275390625 355.1201171875 3233.812744140625 C 373.6474609375 3261.23681640625 393.097412109375 3288.58837890625 412.93017578125 3315.10791015625 C 432.726318359375 3341.578369140625 453.43701171875 3367.932861328125 474.48583984375 3393.4384765625 C 495.50927734375 3418.912109375 517.435791015625 3444.2255859375 539.657470703125 3468.67431640625 C 561.86474609375 3493.1083984375 584.964111328125 3517.336669921875 608.314208984375 3540.68603515625 C 631.66357421875 3564.03564453125 655.891357421875 3587.135009765625 680.3251953125 3609.3427734375 C 704.774169921875 3631.56396484375 730.08740234375 3653.490478515625 755.56201171875 3674.513916015625 C 781.067626953125 3695.562744140625 807.42138671875 3716.2734375 833.892578125 3736.0693359375 C 860.411865234375 3755.90234375 887.76318359375 3775.352294921875 915.18701171875 3793.87939453125 C 942.677490234375 3812.45166015625 970.982421875 3830.59765625 999.315185546875 3847.813232421875 C 1027.734130859375 3865.08056640625 1056.94873046875 3881.87890625 1086.1474609375 3897.740478515625 C 1115.450927734375 3913.658935546875 1145.53076171875 3929.06494140625 1175.552490234375 3943.531005859375 C 1205.697998046875 3958.056640625 1236.599609375 3972.02734375 1267.400390625 3985.054443359375 C 1298.3447265625 3998.142822265625 1330.024658203125 4010.6337890625 1361.560791015625 4022.18115234375 C 1393.26025390625 4033.787841796875 1425.6748046875 4044.755615234375 1457.904052734375 4054.780029296875 C 1490.315185546875 4064.860595703125 1523.420166015625 4074.26171875 1556.299072265625 4082.720458984375 C 1589.379150390625 4091.231689453125 1623.130859375 4099.021484375 1656.616455078125 4105.8740234375 C 1690.3212890625 4112.77099609375 1724.67529296875 4118.90625 1758.724609375 4124.1083984375 C 1793.011474609375 4129.34716796875 1827.9248046875 4133.78369140625 1862.495361328125 4137.29443359375 C 1897.319091796875 4140.8310546875 1932.748046875 4143.525390625 1967.796875 4145.30224609375 C 2003.115234375 4147.09228515625 2039.015380859375 4148 2074.499755859375 4148 C 2144.27294921875 4148 2216.59130859375 4146.5576171875 2289.44580078125 4143.7138671875 C 2359.133544921875 4140.9931640625 2431.16357421875 4136.91796875 2503.53515625 4131.6005859375 C 2572.5419921875 4126.53076171875 2643.6796875 4120.197265625 2714.97314453125 4112.77783203125 C 2782.701904296875 4105.72900390625 2852.34375 4097.51513671875 2921.96240234375 4088.36376953125 C 3162.8115234375 4056.70556640625 3414.33203125 4012.561767578125 3669.53759765625 3957.158935546875 C 3769.798583984375 3935.392822265625 3870.87646484375 3911.8154296875 3969.96240234375 3887.08154296875 C 4049.23193359375 3867.29443359375 4127.412109375 3846.7265625 4202.3310546875 3825.949951171875 C 4268.986328125 3807.465087890625 4320.666015625 3792.2333984375 4352.28173828125 3782.71044921875 C 4382.93994140625 3773.4765625 4401.1650390625 3767.681884765625 4404.7880859375 3766.523681640625 C 4406.26318359375 3723.22607421875 4407.28271484375 3679.485107421875 4407.81982421875 3636.497802734375 C 4408.35546875 3593.586181640625 4408.42431640625 3550.232177734375 4408.02490234375 3507.640625 C 4407.62841796875 3465.3515625 4406.75927734375 3422.63623046875 4405.44091796875 3380.6806640625 C 4404.1318359375 3339.022216796875 4402.34423828125 3296.953369140625 4400.126953125 3255.64208984375 C 4397.92529296875 3214.622802734375 4395.23974609375 3173.208984375 4392.1435546875 3132.551025390625 C 4389.06982421875 3092.17822265625 4385.505859375 3051.427734375 4381.5517578125 3011.43115234375 C 4377.62451171875 2971.7138671875 4373.20361328125 2931.635009765625 4368.41064453125 2892.3076171875 C 4363.65087890625 2853.25341796875 4358.392578125 2813.85498046875 4352.78076171875 2775.20556640625 C 4347.20849609375 2736.8232421875 4341.1328125 2698.11279296875 4334.72314453125 2660.14990234375 C 4328.35693359375 2622.447265625 4321.48486328125 2584.433349609375 4314.296875 2547.16552734375 C 4307.15771484375 2510.14990234375 4299.5087890625 2472.84228515625 4291.5625 2436.27734375 C 4283.669921875 2399.957763671875 4275.26416015625 2363.36328125 4266.580078125 2327.50927734375 C 4257.95361328125 2291.89453125 4248.8125 2256.021484375 4239.41015625 2220.8876953125 C 4230.0703125 2185.98486328125 4220.212890625 2150.84228515625 4210.11328125 2116.4365234375 C 4200.07861328125 2082.25439453125 4189.5263671875 2047.8505859375 4178.74853515625 2014.181640625 C 4168.0400390625 1980.727783203125 4156.8125 1947.071044921875 4145.37744140625 1914.146728515625 C 4134.01416015625 1881.429443359375 4122.13134765625 1848.5283203125 4110.05908203125 1816.357177734375 C 4098.0615234375 1784.385009765625 4085.544189453125 1752.247802734375 4072.854736328125 1720.83837890625 C 4060.241943359375 1689.618896484375 4047.1103515625 1658.25390625 4033.82373046875 1627.614501953125 C 4020.61572265625 1597.156005859375 4006.8896484375 1566.57177734375 3993.0263671875 1536.71044921875 C 3979.24365234375 1507.021728515625 3964.943115234375 1477.22607421875 3950.523681640625 1448.151611328125 C 3936.184814453125 1419.240478515625 3921.330810546875 1390.2421875 3906.374755859375 1361.962158203125 C 3891.500244140625 1333.837158203125 3876.113037109375 1305.64501953125 3860.64013671875 1278.168212890625 C 3845.249755859375 1250.837158203125 3829.349609375 1223.458984375 3813.380859375 1196.793212890625 C 3797.494140625 1170.264892578125 3781.100830078125 1143.708984375 3764.65625 1117.86328125 C 3748.29296875 1092.1455078125 3731.427490234375 1066.420654296875 3714.52685546875 1041.40234375 C 3697.70703125 1016.50341796875 3680.388671875 991.61767578125 3663.052978515625 967.435546875 C 3645.79638671875 943.364501953125 3628.0458984375 919.325439453125 3610.294677734375 895.98828125 C 3592.620849609375 872.752197265625 3574.45849609375 849.570068359375 3556.3125 827.0849609375 C 3538.24072265625 804.69287109375 3519.68701171875 782.37451171875 3501.165771484375 760.75048828125 C 3482.717041015625 739.21044921875 3463.7919921875 717.764892578125 3444.916015625 697.010009765625 C 3426.109130859375 676.33056640625 3406.8330078125 655.76611328125 3387.62255859375 635.8876953125 C 3362.95263671875 610.360107421875 3337.6181640625 585.163818359375 3312.322509765625 560.998291015625 C 3287.126953125 536.928955078125 3261.286376953125 513.228271484375 3235.517578125 490.5556640625 C 3209.83935546875 467.962158203125 3183.535888671875 445.775634765625 3157.3369140625 424.611572265625 C 3131.218017578125 403.5126953125 3104.4951171875 382.8583984375 3077.90966796875 363.22119140625 C 3051.392578125 343.635009765625 3024.29345703125 324.530029296875 2997.36474609375 306.436767578125 C 2970.491943359375 288.381103515625 2943.060302734375 270.843994140625 2915.830810546875 254.31103515625 C 2888.645263671875 237.804931640625 2860.92431640625 221.853271484375 2833.4375 206.8984375 C 2805.9814453125 191.9599609375 2778.0146484375 177.611083984375 2750.314208984375 164.25048828125 C 2722.6298828125 150.8984375 2694.4609375 138.171142578125 2666.588623046875 126.422119140625 C 2638.71923828125 114.673828125 2610.391357421875 103.58544921875 2582.391357421875 93.465087890625 C 2554.379150390625 83.340087890625 2525.935302734375 73.908447265625 2497.849609375 65.432861328125 C 2469.738037109375 56.948974609375 2441.221923828125 49.1923828125 2413.09423828125 42.37841796875 C 2384.92529296875 35.5546875 2356.38037109375 29.49072265625 2328.251953125 24.35498046875 C 2300.06982421875 19.20947265625 2271.5390625 14.85546875 2243.45361328125 11.41552734375 C 2215.2998046875 7.966796875 2186.826904296875 5.34130859375 2158.826416015625 3.61279296875 C 2130.744140625 1.87890625 2102.37255859375 1 2074.499755859375 1 M 2074.499755859375 0 C 3220.21484375 0 4484.72119140625 1457.36279296875 4405.763671875 3767.26123046875 C 4405.763671875 3767.26123046875 3220.21484375 4149 2074.499755859375 4149 C 928.785400390625 4149 -0.00048828125 3220.215087890625 -0.00048828125 2074.5 C -0.00048828125 928.784912109375 928.785400390625 0 2074.499755859375 0 Z" stroke="none" fill="#707070"/></g><g transform="translate(4897 523)"><circle cx="100.5" cy="100.5" r="100.5" transform="translate(2599 -6091)" fill="#434343"/><path d="M0,0H35s9.229,17.17,9.229,34.42S35,69,35,69H0S9.229,51.694,9.229,34.444,0,0,0,0Z" transform="translate(2735 -6034)" fill="#fff"/></g><g transform="translate(3299 367)"><circle cx="100.5" cy="100.5" r="100.5" transform="translate(2599 -6091)" fill="#434343"/><path d="M0,0H35s9.229,17.17,9.229,34.42S35,69,35,69H0S9.229,51.694,9.229,34.444,0,0,0,0Z" transform="translate(2735 -6034)" fill="#fff"/></g><line x1="1202" y2="477" transform="translate(6788.5 -2714.5)" fill="none" stroke="#343434" stroke-width="40"/><line x1="974" y2="400" transform="translate(5637.5 -2806.5)" fill="none" stroke="#343434" stroke-width="40"/><line x1="169" y1="155" transform="translate(5492.5 -2561.5)" fill="none" stroke="#343434" stroke-width="40"/><line x1="24" y1="252" transform="translate(5637.5 -2658.5)" fill="none" stroke="#343434" stroke-width="40"/><line y1="200" x2="145" transform="translate(5657.5 -2606.5)" fill="none" stroke="#343434" stroke-width="40"/><line x1="169" y1="155" transform="translate(6634.5 -2386.5)" fill="none" stroke="#343434" stroke-width="40"/><line x1="24" y1="252" transform="translate(6779.5 -2483.5)" fill="none" stroke="#343434" stroke-width="40"/><line y1="200" x2="145" transform="translate(6799.5 -2431.5)" fill="none" stroke="#343434" stroke-width="40"/><path d="M6681.685-2858.515c-75.824-15.674-231.788-5.625-224,26.325s84.178,62.311,84.178,62.311-62.86,91.28,0,103.737,160.1-22.424,160.1-22.424,2.654,102.927,41.6,121.712S6833.844-2731,6833.844-2731" transform="translate(-45 -149)" fill="#ff8989"/><path d="M6681.685-2858.515c-75.824-15.674-231.788-5.625-224,26.325s84.178,62.311,84.178,62.311-62.86,91.28,0,103.737,160.1-22.424,160.1-22.424,2.654,102.927,41.6,121.712S6833.844-2731,6833.844-2731" transform="translate(1239 81)" fill="#ff8989"/><path d="M9927.718-2679.844s161.31-1369.554,319.069-1357-220.775,1260.93-220.775,1260.93,441.138-1313.671,632.592-1223.791-597.856,1291.284-597.856,1291.284,911.4-1002.914,1046.119-790.426-1080.854,899.431-1080.854,899.431" transform="translate(-170 -175)" fill="#ff8989"/><ellipse cx="288.5" cy="141.5" rx="288.5" ry="141.5" transform="translate(7452 -5184)" fill="#e54c4c" opacity="0.431"/><ellipse cx="210.5" cy="141.5" rx="210.5" ry="141.5" transform="translate(5733 -5467)" fill="#e54c4c" opacity="0.431"/><path d="M6859.943-4870.066c-322.8,135.03-506.932,157.384-506.932,157.384s-362.827-47.849-576.591-392.665" transform="translate(282 -23)" fill="none" stroke="#3b3b3b" stroke-linecap="round" stroke-width="37"/></g></g></svg>